<svg id="Layer_1" enable-background="new 0 0 512 512" height="512" viewBox="0 0 512 512" width="512" xmlns="http://www.w3.org/2000/svg"><g><path d="m164.46 445.538c.065 1.082.109 2.168.109 3.261 0 14.198-5.529 27.546-15.568 37.585-.096.096-.189.193-.283.291-5.599 5.901-5.472 15.183.275 20.931 5.898 5.898 15.458 5.847 21.303-.09 15.653-15.696 24.273-36.544 24.273-58.716 0-2.146-.105-4.276-.266-6.394-9.711 1.804-19.677 2.875-29.843 3.132z"/><path d="m357.276 349.138c.873 14.647-4.287 29.582-15.484 40.776l-7.237 7.239c-28.772 28.772-33.273 74.23-10.704 108.088 3.097 4.647 11.909 10.088 20.802 4.161 6.893-4.595 8.756-13.908 4.161-20.801-14.666-22.001-11.741-51.54 6.962-70.243l7.237-7.238c17.97-17.969 25.876-41.879 24.094-65.115-9.707 1.804-19.669 2.875-29.831 3.133z"/><path d="m352.4 0c-88.004 0-159.6 71.596-159.6 159.6s71.596 159.6 159.6 159.6 159.6-71.596 159.6-159.6-71.596-159.6-159.6-159.6zm-32.658 103.03c-15.123 8.731-25.936 22.817-30.448 39.661-2.049 7.646-10.031 12.84-18.371 10.608-8.002-2.144-12.751-10.369-10.607-18.371 6.586-24.585 22.363-45.14 44.425-57.879 7.173-4.142 16.35-1.686 20.491 5.49 4.142 7.174 1.684 16.348-5.49 20.491z"/><path d="m162.8 159.6c0-21.926 3.754-42.988 10.631-62.594-4.56-.393-9.17-.606-13.83-.606-88.004 0-159.601 71.596-159.601 159.6s71.597 159.6 159.601 159.6c57.067 0 107.224-30.112 135.444-75.276-76.596-24.364-132.245-96.163-132.245-180.724zm-35.859 39.83c-15.122 8.731-25.935 22.816-30.447 39.662-2.049 7.646-10.031 12.84-18.371 10.608-8.002-2.144-12.751-10.369-10.607-18.371 6.587-24.586 22.363-45.142 44.426-57.879 7.171-4.142 16.348-1.685 20.49 5.49 4.142 7.174 1.684 16.348-5.491 20.49z"/></g></svg>